<mxfile host="app.diagrams.net" agent="Mozilla/5.0 (Windows NT 10.0; Win64; x64) AppleWebKit/537.36 (KHTML, like Gecko) Chrome/135.0.0.0 Safari/537.36" version="26.2.13">
  <diagram name="Page-1" id="ofX0lfNsmyz9rVzjo-Fv">
    <mxGraphModel dx="1428" dy="785" grid="1" gridSize="10" guides="1" tooltips="1" connect="1" arrows="1" fold="1" page="1" pageScale="1" pageWidth="850" pageHeight="1100" math="0" shadow="0">
      <root>
        <mxCell id="0" />
        <mxCell id="1" parent="0" />
        <mxCell id="EjucyLZb7gGKKVSEH9q9-1" value="Recruiters" style="shape=umlActor;verticalLabelPosition=bottom;verticalAlign=top;html=1;outlineConnect=0;" vertex="1" parent="1">
          <mxGeometry x="40" y="310" width="30" height="60" as="geometry" />
        </mxCell>
        <mxCell id="EjucyLZb7gGKKVSEH9q9-2" value="Post bài tuyển dụng" style="ellipse;whiteSpace=wrap;html=1;" vertex="1" parent="1">
          <mxGeometry x="60" y="60" width="120" height="80" as="geometry" />
        </mxCell>
        <mxCell id="EjucyLZb7gGKKVSEH9q9-3" value="Chọn các ứng viên dựa trên post CV của ứng viên" style="ellipse;whiteSpace=wrap;html=1;" vertex="1" parent="1">
          <mxGeometry x="390" y="180" width="120" height="80" as="geometry" />
        </mxCell>
        <mxCell id="EjucyLZb7gGKKVSEH9q9-4" value="duyệt CV" style="ellipse;whiteSpace=wrap;html=1;" vertex="1" parent="1">
          <mxGeometry x="390" y="310" width="120" height="80" as="geometry" />
        </mxCell>
        <mxCell id="EjucyLZb7gGKKVSEH9q9-5" value="Giao task" style="ellipse;whiteSpace=wrap;html=1;" vertex="1" parent="1">
          <mxGeometry x="290" y="420" width="120" height="80" as="geometry" />
        </mxCell>
        <mxCell id="EjucyLZb7gGKKVSEH9q9-6" value="đánh giá task" style="ellipse;whiteSpace=wrap;html=1;" vertex="1" parent="1">
          <mxGeometry x="230" y="590" width="120" height="80" as="geometry" />
        </mxCell>
        <mxCell id="EjucyLZb7gGKKVSEH9q9-7" value="" style="endArrow=none;html=1;rounded=0;exitX=0.5;exitY=0.5;exitDx=0;exitDy=0;exitPerimeter=0;entryX=0.033;entryY=0.588;entryDx=0;entryDy=0;entryPerimeter=0;" edge="1" parent="1" source="EjucyLZb7gGKKVSEH9q9-1" target="EjucyLZb7gGKKVSEH9q9-3">
          <mxGeometry width="50" height="50" relative="1" as="geometry">
            <mxPoint x="400" y="430" as="sourcePoint" />
            <mxPoint x="450" y="380" as="targetPoint" />
          </mxGeometry>
        </mxCell>
        <mxCell id="EjucyLZb7gGKKVSEH9q9-8" value="" style="endArrow=none;html=1;rounded=0;exitX=0.5;exitY=0.5;exitDx=0;exitDy=0;exitPerimeter=0;" edge="1" parent="1" source="EjucyLZb7gGKKVSEH9q9-1" target="EjucyLZb7gGKKVSEH9q9-2">
          <mxGeometry width="50" height="50" relative="1" as="geometry">
            <mxPoint x="65" y="350" as="sourcePoint" />
            <mxPoint x="184" y="317" as="targetPoint" />
          </mxGeometry>
        </mxCell>
        <mxCell id="EjucyLZb7gGKKVSEH9q9-9" value="" style="endArrow=none;html=1;rounded=0;exitX=0.5;exitY=0.5;exitDx=0;exitDy=0;exitPerimeter=0;entryX=0;entryY=0.5;entryDx=0;entryDy=0;" edge="1" parent="1" source="EjucyLZb7gGKKVSEH9q9-1" target="EjucyLZb7gGKKVSEH9q9-4">
          <mxGeometry width="50" height="50" relative="1" as="geometry">
            <mxPoint x="75" y="360" as="sourcePoint" />
            <mxPoint x="194" y="327" as="targetPoint" />
          </mxGeometry>
        </mxCell>
        <mxCell id="EjucyLZb7gGKKVSEH9q9-10" value="" style="endArrow=none;html=1;rounded=0;exitX=0.5;exitY=0.5;exitDx=0;exitDy=0;exitPerimeter=0;entryX=0.008;entryY=0.35;entryDx=0;entryDy=0;entryPerimeter=0;" edge="1" parent="1" source="EjucyLZb7gGKKVSEH9q9-1" target="EjucyLZb7gGKKVSEH9q9-5">
          <mxGeometry width="50" height="50" relative="1" as="geometry">
            <mxPoint x="65" y="350" as="sourcePoint" />
            <mxPoint x="450" y="281" as="targetPoint" />
          </mxGeometry>
        </mxCell>
        <mxCell id="EjucyLZb7gGKKVSEH9q9-11" value="" style="endArrow=none;html=1;rounded=0;exitX=0.5;exitY=0.5;exitDx=0;exitDy=0;exitPerimeter=0;entryX=0.233;entryY=0.113;entryDx=0;entryDy=0;entryPerimeter=0;" edge="1" parent="1" source="EjucyLZb7gGKKVSEH9q9-1" target="EjucyLZb7gGKKVSEH9q9-6">
          <mxGeometry width="50" height="50" relative="1" as="geometry">
            <mxPoint x="75" y="360" as="sourcePoint" />
            <mxPoint x="460" y="291" as="targetPoint" />
          </mxGeometry>
        </mxCell>
        <mxCell id="EjucyLZb7gGKKVSEH9q9-12" value="" style="endArrow=classic;html=1;rounded=0;dashed=1;exitX=0.575;exitY=-0.025;exitDx=0;exitDy=0;exitPerimeter=0;" edge="1" parent="1" source="EjucyLZb7gGKKVSEH9q9-6" target="EjucyLZb7gGKKVSEH9q9-5">
          <mxGeometry width="50" height="50" relative="1" as="geometry">
            <mxPoint x="230" y="580" as="sourcePoint" />
            <mxPoint x="520" y="510" as="targetPoint" />
          </mxGeometry>
        </mxCell>
        <mxCell id="EjucyLZb7gGKKVSEH9q9-13" value="&amp;lt;&amp;lt;include&amp;gt;&amp;gt;" style="edgeLabel;html=1;align=center;verticalAlign=middle;resizable=0;points=[];" vertex="1" connectable="0" parent="EjucyLZb7gGKKVSEH9q9-12">
          <mxGeometry x="-0.1459" y="-3" relative="1" as="geometry">
            <mxPoint as="offset" />
          </mxGeometry>
        </mxCell>
        <mxCell id="EjucyLZb7gGKKVSEH9q9-14" value="gửi mail" style="ellipse;whiteSpace=wrap;html=1;" vertex="1" parent="1">
          <mxGeometry x="650" y="310" width="120" height="80" as="geometry" />
        </mxCell>
        <mxCell id="EjucyLZb7gGKKVSEH9q9-16" value="" style="endArrow=classic;html=1;rounded=0;exitX=-0.008;exitY=0.6;exitDx=0;exitDy=0;exitPerimeter=0;entryX=1;entryY=0.5;entryDx=0;entryDy=0;dashed=1;" edge="1" parent="1" source="EjucyLZb7gGKKVSEH9q9-14" target="EjucyLZb7gGKKVSEH9q9-4">
          <mxGeometry width="50" height="50" relative="1" as="geometry">
            <mxPoint x="500" y="550" as="sourcePoint" />
            <mxPoint x="675" y="490" as="targetPoint" />
          </mxGeometry>
        </mxCell>
        <mxCell id="EjucyLZb7gGKKVSEH9q9-19" value="&amp;lt;&amp;lt;extend&amp;gt;&amp;gt;" style="edgeLabel;html=1;align=center;verticalAlign=middle;resizable=0;points=[];" vertex="1" connectable="0" parent="EjucyLZb7gGKKVSEH9q9-16">
          <mxGeometry x="0.0767" y="-2" relative="1" as="geometry">
            <mxPoint y="1" as="offset" />
          </mxGeometry>
        </mxCell>
        <mxCell id="EjucyLZb7gGKKVSEH9q9-20" value="gửi đánh giá cho giảng viên" style="ellipse;whiteSpace=wrap;html=1;" vertex="1" parent="1">
          <mxGeometry x="60" y="680" width="120" height="80" as="geometry" />
        </mxCell>
        <mxCell id="EjucyLZb7gGKKVSEH9q9-21" value="" style="endArrow=classic;html=1;rounded=0;dashed=1;" edge="1" parent="1" source="EjucyLZb7gGKKVSEH9q9-20" target="EjucyLZb7gGKKVSEH9q9-6">
          <mxGeometry width="50" height="50" relative="1" as="geometry">
            <mxPoint x="200" y="720" as="sourcePoint" />
            <mxPoint x="304" y="500" as="targetPoint" />
          </mxGeometry>
        </mxCell>
        <mxCell id="EjucyLZb7gGKKVSEH9q9-22" value="&amp;lt;&amp;lt;include&amp;gt;&amp;gt;" style="edgeLabel;html=1;align=center;verticalAlign=middle;resizable=0;points=[];" vertex="1" connectable="0" parent="EjucyLZb7gGKKVSEH9q9-21">
          <mxGeometry x="-0.1459" y="-3" relative="1" as="geometry">
            <mxPoint as="offset" />
          </mxGeometry>
        </mxCell>
        <mxCell id="EjucyLZb7gGKKVSEH9q9-23" value="" style="endArrow=none;html=1;rounded=0;exitX=0.5;exitY=0.5;exitDx=0;exitDy=0;exitPerimeter=0;entryX=0.333;entryY=0;entryDx=0;entryDy=0;entryPerimeter=0;" edge="1" parent="1" source="EjucyLZb7gGKKVSEH9q9-1" target="EjucyLZb7gGKKVSEH9q9-20">
          <mxGeometry width="50" height="50" relative="1" as="geometry">
            <mxPoint x="65" y="350" as="sourcePoint" />
            <mxPoint x="258" y="589" as="targetPoint" />
          </mxGeometry>
        </mxCell>
        <mxCell id="EjucyLZb7gGKKVSEH9q9-24" value="Chọn các ứng viên dựa trên post CV của ứng viên" style="ellipse;whiteSpace=wrap;html=1;" vertex="1" parent="1">
          <mxGeometry x="260" y="70" width="120" height="80" as="geometry" />
        </mxCell>
        <mxCell id="EjucyLZb7gGKKVSEH9q9-25" value="" style="endArrow=none;html=1;rounded=0;entryX=0.183;entryY=0.95;entryDx=0;entryDy=0;entryPerimeter=0;exitX=0.5;exitY=0.5;exitDx=0;exitDy=0;exitPerimeter=0;" edge="1" parent="1" source="EjucyLZb7gGKKVSEH9q9-1" target="EjucyLZb7gGKKVSEH9q9-24">
          <mxGeometry width="50" height="50" relative="1" as="geometry">
            <mxPoint x="190" y="270" as="sourcePoint" />
            <mxPoint x="404" y="237" as="targetPoint" />
          </mxGeometry>
        </mxCell>
      </root>
    </mxGraphModel>
  </diagram>
</mxfile>
